<svg width="13" height="13" viewBox="0 0 13 13" fill="none" xmlns="http://www.w3.org/2000/svg">
<path d="M5.11328 0C7.93678 0.000261293 10.2256 2.28972 10.2256 5.11328C10.2254 6.16317 9.90812 7.13838 9.36523 7.9502L12.3652 10.9502C12.7551 11.3408 12.7555 11.9739 12.3652 12.3643C11.9749 12.7546 11.3417 12.7541 10.9512 12.3643L7.95117 9.36426C7.13922 9.90728 6.16339 10.2255 5.11328 10.2256C2.29005 10.2253 0.000469844 7.93646 0 5.11328C0 2.28971 2.28976 0.000236689 5.11328 0ZM5.11328 1.5C3.11819 1.50024 1.5 3.11813 1.5 5.11328C1.50047 7.10803 3.11848 8.72535 5.11328 8.72559C7.10806 8.72532 8.72512 7.10801 8.72559 5.11328C8.72559 3.11815 7.10835 1.50026 5.11328 1.5Z" fill="#1B1B1B" fill-opacity="0.2"/>
</svg>
